<?xml version="1.0" encoding="UTF-8" standalone="no"?>
<!-- Created with Inkscape (http://www.inkscape.org/) -->

<svg
   width="301"
   height="92"
   viewBox="0 0 79.639582 24.341667"
   version="1.1"
   id="svg1"
   inkscape:version="1.3.2 (1:1.3.2+202311252150+091e20ef0f)"
   sodipodi:docname="dp-lg-01.svg"
   xmlns:inkscape="http://www.inkscape.org/namespaces/inkscape"
   xmlns:sodipodi="http://sodipodi.sourceforge.net/DTD/sodipodi-0.dtd"
   xmlns="http://www.w3.org/2000/svg"
   xmlns:svg="http://www.w3.org/2000/svg">
  <sodipodi:namedview
     id="namedview1"
     pagecolor="#ffffff"
     bordercolor="#000000"
     borderopacity="0.25"
     inkscape:showpageshadow="2"
     inkscape:pageopacity="0.0"
     inkscape:pagecheckerboard="0"
     inkscape:deskcolor="#d1d1d1"
     inkscape:document-units="px"
     inkscape:zoom="1.3576599"
     inkscape:cx="218.0222"
     inkscape:cy="75.129272"
     inkscape:window-width="1920"
     inkscape:window-height="962"
     inkscape:window-x="0"
     inkscape:window-y="0"
     inkscape:window-maximized="1"
     inkscape:current-layer="layer1" />
  <defs
     id="defs1" />
  <g
     inkscape:label="Layer 1"
     inkscape:groupmode="layer"
     id="layer1">
    <path
       style="-inkscape-font-specification:'Madimi One';fill:#0d9db8;stroke-width:0.101626"
       d="m 1.3196281,18.378883 q -0.49044889,0 -0.85183229,-0.361383 -0.3355703,-0.387196 -0.3355703,-0.955085 V 5.5497728 q 0,-2.6845625 1.44553359,-4.1042831 1.4713466,-1.41972049 4.2333486,-1.41972049 7.2276683,0 7.2276683,9.37015519 0,4.5689186 -1.806917,6.7888456 -1.8069173,2.194113 -5.5498173,2.194113 z m 2.5296836,-3.045945 h 1.83273 q 1.91017,0 2.762002,-1.471347 0.877646,-1.49716 0.877646,-4.8012366 0,-3.149198 -0.800206,-4.4656664 -0.774393,-1.3422812 -2.65875,-1.3422812 -2.013422,0 -2.013422,1.4713467 z m 13.6034923,3.25245 q -1.858543,0 -1.858543,-1.755291 V 7.0469324 q 0,-1.7811037 1.858543,-1.7811037 0.929272,0 1.342281,0.4130096 0.41301,0.3871961 0.41301,1.2906551 0.464636,-0.851832 1.316468,-1.264842 0.877646,-0.4388227 2.039235,-0.4388227 2.219927,0 2.219927,1.9359827 0,0.722767 -0.542075,1.08415 -0.542075,0.361383 -1.781104,0.361383 -1.213216,0 -1.91017,0.232318 -0.696953,0.206505 -0.980898,0.800206 -0.258131,0.5678886 -0.258131,1.6520386 v 5.49819 q 0,1.755291 -1.858543,1.755291 z m 13.448589,0 q -2.762001,0 -4.362414,-1.574599 -1.600412,-1.574599 -1.600412,-5.085181 0,-3.5363946 1.600412,-5.0851806 1.600413,-1.5745987 4.362414,-1.5745987 2.762002,0 4.362414,1.5745987 1.600413,1.548786 1.600413,5.0851806 0,3.510582 -1.600413,5.085181 -1.600412,1.574599 -4.362414,1.574599 z m 0,-3.097572 q 0.722767,0 1.213216,-0.283944 0.490449,-0.309757 0.74858,-1.08415 0.283944,-0.774393 0.283944,-2.194114 0,-1.41972 -0.283944,-2.1941126 -0.258131,-0.774393 -0.74858,-1.058337 -0.490449,-0.309758 -1.213216,-0.309758 -0.696953,0 -1.213215,0.309758 -0.490449,0.283944 -0.774393,1.058337 -0.258131,0.7743926 -0.258131,2.1941126 0,1.419721 0.258131,2.194114 0.283944,0.774393 0.774393,1.08415 0.516262,0.283944 1.213215,0.283944 z m 10.299394,8.828081 q -1.884356,0 -1.884356,-2.013422 V 12.132113 q 0,-3.5105816 1.548786,-5.2400586 1.548786,-1.7294781 4.336601,-1.7294781 2.839441,0 4.465666,1.8069171 1.652039,1.806917 1.652039,5.2916856 0,2.323179 -0.671141,3.717086 -0.671141,1.368094 -1.858543,1.987609 -1.187403,0.619514 -2.736189,0.619514 -1.342281,0 -2.219927,-0.387196 -0.851832,-0.387197 -1.342281,-1.187403 0.180692,0.516262 0.258131,1.006711 0.103253,0.490449 0.129066,1.135776 0.05163,0.645328 0.05163,1.652039 v 1.49716 q 0,2.013422 -1.729478,2.013422 z m 4.181723,-8.750642 q 1.08415,0 1.677851,-0.748579 0.619515,-0.774393 0.619515,-2.891068 0,-2.1166736 -0.619515,-2.8652536 -0.593701,-0.774393 -1.677851,-0.774393 -1.084151,0 -1.703665,0.774393 -0.593701,0.74858 -0.593701,2.8652536 0,2.116675 0.593701,2.891068 0.619514,0.748579 1.703665,0.748579 z m 13.706717,3.020133 q -2.762002,0 -4.362414,-1.574599 -1.600412,-1.574599 -1.600412,-5.085181 0,-3.5363946 1.600412,-5.0851806 1.600412,-1.5745987 4.362414,-1.5745987 2.762002,0 4.362414,1.5745987 1.600412,1.548786 1.600412,5.0851806 0,3.510582 -1.600412,5.085181 -1.600412,1.574599 -4.362414,1.574599 z m 0,-3.097572 q 0.722767,0 1.213216,-0.283944 0.490449,-0.309757 0.74858,-1.08415 0.283944,-0.774393 0.283944,-2.194114 0,-1.41972 -0.283944,-2.1941126 -0.258131,-0.774393 -0.74858,-1.058337 -0.490449,-0.309758 -1.213216,-0.309758 -0.696954,0 -1.213216,0.309758 -0.490449,0.283944 -0.774393,1.058337 -0.258131,0.7743926 -0.258131,2.1941126 0,1.419721 0.258131,2.194114 0.283944,0.774393 0.774393,1.08415 0.516262,0.283944 1.213216,0.283944 z m 10.299396,8.828081 q -1.884356,0 -1.884356,-2.013422 V 12.132113 q 0,-3.5105816 1.548786,-5.2400586 1.548786,-1.7294781 4.336601,-1.7294781 2.839441,0 4.465666,1.8069171 1.652038,1.806917 1.652038,5.2916856 0,2.323179 -0.67114,3.717086 -0.671141,1.368094 -1.858543,1.987609 -1.187403,0.619514 -2.736189,0.619514 -1.342281,0 -2.219927,-0.387196 -0.851832,-0.387197 -1.342281,-1.187403 0.180692,0.516262 0.258131,1.006711 0.103252,0.490449 0.129065,1.135776 0.05163,0.645328 0.05163,1.652039 v 1.49716 q 0,2.013422 -1.729478,2.013422 z m 4.181722,-8.750642 q 1.08415,0 1.677852,-0.748579 0.619514,-0.774393 0.619514,-2.891068 0,-2.1166736 -0.619514,-2.8652536 -0.593702,-0.774393 -1.677852,-0.774393 -1.08415,0 -1.703664,0.774393 -0.593702,0.74858 -0.593702,2.8652536 0,2.116675 0.593702,2.891068 0.619514,0.748579 1.703664,0.748579 z"
       id="text1-7-6"
       aria-label="Dropop" />
  </g>
</svg>
